<?xml version="1.0" encoding="utf-8"?>
<!-- Generator: Adobe Illustrator 22.0.1, SVG Export Plug-In . SVG Version: 6.00 Build 0)  -->
<svg version="1.1" id="Calque_1" xmlns="http://www.w3.org/2000/svg" xmlns:xlink="http://www.w3.org/1999/xlink" x="0px" y="0px"
	 viewBox="0 0 400 400" style="enable-background:new 0 0 400 400;" xml:space="preserve">
<g>
	<path d="M170,146.2c6.4-41.4,12.5-81.6,18.7-121.8c-27.1-8.3-77.4,1.2-86.8,15.5c18.8,2,38,3.9,57.2,5.9
		C108.7,53.6,82,60.3,62.8,72.9C32.1,93,12.4,129.4,17.9,153.2c7.5-10.1,15.7-21,23.9-32c0.9,0.8,1.9,1.5,2.8,2.3
		c-0.5,1.3-0.7,2.8-1.5,3.8c-29.7,36.2-36.6,77.1-26.6,122.1c4.1,18.3,5.2,37.5,10.8,55.3c8.6,27,18.9,47.5,48.8,49.7
		c-20.7-18.8-27.3-51.2-11.6-70.7c-1.6,34.4,19,54,41.7,70.5c23,16.8,50,25.7,78.9,28.2c0.6-11.2,0.6-11.2-15.8-29
		c4.7-0.7,8.7-1.2,12.4-1.7c-4.5-33.1-8.9-65.1-13.5-98.9c-22,12.9-43.1,25.3-64.2,37.7c-0.7-0.8-1.4-1.5-2.1-2.3
		c11.6-21.7,23.2-43.4,35-65.3c-32.6-7.4-64.6-14.6-96.6-21.9c0-1,0-2,0-3c33.4-9.4,66.9-18.7,101.3-28.3
		c-17.5-24.6-34.7-48.8-51.9-73c0.9-0.7,1.9-1.5,2.8-2.2C118.3,111.5,144.1,128.8,170,146.2z"/>
	<path d="M354.6,263.6c11.6-33.7,22.1-63.4,15.7-97.1c-6-31.6-12.3-61.7-33.5-86.8c1.9,13.3,12.3,25.5,0.7,40.7
		c-14.9-42.6-34-80.4-81.8-96c9.4,12.6,17.3,23.3,25.3,34c-1.3,1-2.6,2-3.9,3c-25.6-12.6-44.9-38.6-78.8-37.5
		c6,40.5,11.9,80.2,17.9,120.6c27.1-16.6,53.8-33,80.5-49.4c0.8,0.8,1.5,1.5,2.3,2.3c-16.5,25.2-33.1,50.4-49.9,76
		c33.6,7.9,65.9,15.6,98.3,23.2c-0.1,1.1-0.2,2.3-0.2,3.4c-13.1,2.4-26.2,4.7-38.8,7c-1.9,5.8-3.5,10.8-5.1,15.8
		c-1-0.3-2.1-0.6-3.1-0.9c0-4.2,0-8.4,0-13.8c-15.9,4.1-31.4,8.1-48.1,12.4c13.4,24.1,26.3,47.4,39.3,70.6c-0.8,0.8-1.6,1.7-2.4,2.5
		c-22.7-12.6-45.4-25.1-69.5-38.4c-4.7,34.7-9.2,68.3-14,103.6c49,5.4,94.5,3.5,132.5-31.3c1.1-1,2.3-2.1,3.6-2.7
		c30.6-15.6,42.5-42,43.5-74.8c0.2-7.3,1.1-14.5,2-24.6C373.2,237.7,376.4,257.4,354.6,263.6z"/>
	<path d="M297.1,372.9c25.9,2.2,36.9-4,45.2-26.1C323.6,351.1,305.5,353.6,297.1,372.9z"/>
	<path d="M81.1,360.5c5.7,17.2,20.5,15.1,35.3,19.9C107.8,363.7,96.8,358.9,81.1,360.5z"/>
	<path d="M381.7,149.7c-16.1,6.3-0.2,12.5,0.1,18.7c9.5-19.8,8.6-23.2-8.4-35.5c1.4,3.6,4.1,6.3,6.1,9.5
		C380.7,144.6,381.9,149.6,381.7,149.7z"/>
	<path d="M309.5,46.4c5.5,8.8,11.1,17.6,18.6,29.5C333.3,55.4,324.4,48.9,309.5,46.4z"/>
	<path d="M154.2,13.5c-0.5-2.7-1.1-5.4-1.6-8.1c-10.6,2.2-21.1,4.4-31.7,6.7c0.4,2.1,0.8,4.2,1.3,6.3
		C132.9,16.7,143.6,15.1,154.2,13.5z"/>
	<path d="M357,341.4c8.3-6.3,24.2-4.2,23.3-23c-10,6.6-18.6,12.3-27.2,18.1C354.4,338.1,355.7,339.7,357,341.4z"/>
	<path d="M97.4,387.4c0.2,2.4,0.4,4.8,0.7,7.2c8.3-0.8,16.7-1.7,25-2.5c-0.2-2.3-0.4-4.6-0.6-6.9C114.1,386,105.8,386.7,97.4,387.4z
		"/>
</g>
</svg>
