<?xml version="1.0" encoding="utf-8"?>
<!-- Generator: Adobe Illustrator 22.0.1, SVG Export Plug-In . SVG Version: 6.00 Build 0)  -->
<svg version="1.1" id="Calque_1" xmlns="http://www.w3.org/2000/svg" xmlns:xlink="http://www.w3.org/1999/xlink" x="0px" y="0px"
	 viewBox="0 0 400 400" style="enable-background:new 0 0 400 400;" xml:space="preserve">
<path d="M391,179.4C376.9,57.2,247-21.4,132.5,23.5c-3.4,1.3-5.4,6-7.5,8.4c-6.2,1.4-12.6,1.8-18,4.3c-56.8,26.9-84.5,76.2-97.4,134
	c-5.1,22.9-4,48.8,0.6,72.1c17,87.3,86.2,144.9,170,154c38.6,4.2,76.3-1.1,110.2-21.9c7.9-4.8,14.5-11.7,22.9-18.6
	c3.1-1.5,9.4-2.8,13.5-6.6C377.3,303.7,398.8,247.2,391,179.4z M213.1,131.1c-2.6-10.5-4.8-19.3-7-28.1c1.3-0.4,2.6-0.8,3.8-1.2
	c1.7,3.5,3.4,7.1,5.5,11.3c8.5-16,6.6-25.6-11.5-63.4C225.8,55.8,233.6,109.3,213.1,131.1z M79.4,250.1c0.1-0.1,0.2-0.1,0.3-0.2
	c0.1-0.1,0.2-0.3,0.2-0.4l0,0c0,0,0,0,0,0C79.9,249.5,79.3,250.1,79.4,250.1c0.4-3.1,0.8-6.3,1.2-9.4c5.1-2.3,10.1-4.8,15.3-6.7
	c9.5-3.3,19.2-6.2,28.8-9.3c1.1,2.2,2.3,4.3,3.4,6.5c-7.1,6.3-14.2,12.6-21.3,18.9c-0.8-0.8-1.7-1.7-2.5-2.5c2.7-3.3,5.4-6.7,8-10
	c-0.8-1.4-1.6-2.8-2.5-4.2c-10.1,5.5-20.2,11-30.2,16.5c-4.1,7.5-8.1,15.1-13.6,25.2c12.6-1.5,22.6-2.7,32.6-3.9
	c-12.3,3.1-24.6,6.3-36.9,9.4c-1.3-2.1-2.6-4.3-3.9-6.4C65,266.2,72.2,258.2,79.4,250.1z M47.4,295.6c-1.9-0.4-3.6-1.8-6.6-3.4
	c2.6-5.4,5.1-10.4,7.5-15.4c-2.8,15.2,7.5,14.1,18.3,13.7c0.6-3.1,1.3-6.4,2.2-10.7c12,13.4,33.9,11.8,51.6-2.5c3-5.9,3-5.9,0,0
	c16.9-6.9,33.8-13.7,43.1-31.1c1.9,2.5,5.9,6.6,5.5,7.1C143.5,283.3,92.2,304.6,47.4,295.6z M268.6,279.3
	c-4.5-5.8-8.4-10.8-13.1-16.9c0.6-1.7,2-5.7,4-11c9.1,3.2,17.4,6.2,25.8,9.2c-0.3,1-0.6,2.1-0.9,3.1c-4.2-0.3-8.5-0.7-13.6-1
	c14.4,20.8,45.1,29,57.7,15.8c1.1,1.9,2.3,3.6,3,5.4c0.5,1.3,0.5,2.8,1.5,8.9C309.4,287.8,287.7,283.3,268.6,279.3z M354.6,296.8
	c-9.1,1.1-18.9,2.3-28.7,3.4c-0.1-0.7-0.2-1.3-0.2-2c7.4-1.2,14.8-2.5,22.3-3.7c-8.6-38.7-39.8-65.7-93.6-82.1
	c-6.7,12.6-17.4,13.3-30.3,10.4c-24.1-5.4-39.1,5.3-44.3,29.4c-1.4,6.4-4,12.6-8.9,18.4c0.7-13.2,1.5-26.3,2.2-39.5
	c-0.8-3.2-1.5-6.4-2.3-9.6c11.1-14.5,13-29.2,8.3-47.8c-6.6-25.9-11.2-53.2-10.8-79.7c0.4-26.3,14.9-49.1,31.7-70.9
	c2.8,2.7,4.9,4.7,7.1,6.8c-21.9,14.8-46.4,67.7-25.9,123.7c2.2-3.3,4.2-6.3,8.6-12.9c0.7,10.3,1.2,16.5,1.7,23.2
	c1.9-1.3,3.8-2.8,6-4.3c0.6,0.7,1.6,1.3,1.7,2c3.9,29.6,25,39.1,50.6,42.9c29.9,4.5,56.5,18.4,78.3,37.2
	C342.2,253.9,355.6,272.4,354.6,296.8z"/>
</svg>
