<?xml version="1.0" encoding="utf-8"?>
<!-- Generator: Adobe Illustrator 22.0.1, SVG Export Plug-In . SVG Version: 6.00 Build 0)  -->
<svg version="1.1" id="Calque_1" xmlns="http://www.w3.org/2000/svg" xmlns:xlink="http://www.w3.org/1999/xlink" x="0px" y="0px"
	 viewBox="0 0 400 400" style="enable-background:new 0 0 400 400;" xml:space="preserve">
<g>
	<path d="M232,187.2c0-15.5,0-28.8,0-42.3c12.1-1.5,23.1-2.9,37.9-4.7c0-16,0-31.9,0-47.7c0-10.3-5.5-14.7-15.6-14.6
		c-28.3,0.4-56.5,0.3-84.8,1.5c-3.5,0.1-9.5,6.9-9.6,10.6c-0.1,15.5,1,31.2,3.2,46.5c0.4,3.2,6.8,7.1,11,7.9
		c9.7,1.8,23.7-1.7,28.6,3.6c5.3,5.7,2.2,19.2,2.7,29.3c0.1,2.3-0.3,4.6-0.5,7.9c-17.9,2.1-34.9,3.8-52.1,8.3
		c-26,6.8-55,2.2-82.7,2.4c-13.9,0.1-27.8,0-41.7,0c-1,1.5-2,3-3,4.5c5.8,8.4,10.1,18.3,17.5,24.9c32.1,28.4,68.2,48,112.7,48.8
		c6.9,0.1,16.9,5.4,19.8,11.1c10.2,20.3,0.4,47.8-21.3,54.4c-18.4,5.6-22.4,14.6-17.7,31.1c0.7,2.3-0.4,5.3,0.6,7.2
		c1.4,2.6,4.4,6.6,6.2,6.3c20.7-2.6,42.9,7,62.2-8.1c3.7-2.9,10.5-4.1,15.3-3.2c12.9,2.7,25.4,8.8,38.4,10.1
		c17.7,1.8,35.7,0.5,54.8,0.5c0-9.6,0.1-14.9,0-20.2c-0.1-12.1-3.1-21.2-17.7-23.2c-5.7-0.8-11.1-5.6-16.1-9.4
		c-16.3-12.2-14-29.9-12.7-46.9c2.5-32.9,13.8-47.2,45.4-56.4c10.2-3,21-3.7,31.5-5.5c21.6-3.7,27.6-10.3,30.5-35
		C327,187.2,279.6,187.2,232,187.2z M186.8,140.4c-10.6,0.4-17.5-1.4-19.5-15c-6.2-42.6-6.9-42.5,35-42.5c18,0,36,0.1,54,0.2
		c1.9,0,3.8,0.6,7.7,1.3c0,16.9,0,32.9,0,50.9c-7,1.1-14.4,2.8-21.8,3.2C223.7,139.4,205.2,139.8,186.8,140.4z M224.6,147.6
		c0,56.5,0,112.8,0,170.9c-6.8,2.8-12-0.6-12.3-10.9c-0.9-34.5-1.6-69-2.2-103.4c-0.3-18.7-0.1-37.3-0.1-56.6
		C216.5,147.6,219.8,147.6,224.6,147.6z M143.1,378c-0.7-7-1.5-14.9-2.4-24.1c16,0,32.6,0,51.8,0c0.7,7.5,1.4,15,2.3,24.1
		C176.6,378,159.9,378,143.1,378z M307.3,350.1c0,9.7,0,18,0,28.2c-15.5,0-29.9,0-45.2,0c0-8.1,0-15.6,0-24.7
		C276.4,352.4,291.1,351.3,307.3,350.1z M342.3,218.3c-14.3,1.5-28.7,2.1-42.8,8.2c-28.9,12.4-35.2,36.2-37.6,63.6
		c-2,22.2,5.4,39.9,24.6,52.9c-0.6,1.2-1.1,2.3-1.7,3.5c-9.1,0.6-18.3,1.2-27.8,1.8c-3.6,23.3-3.6,23.3-45.2,20.8
		c-3.5-10.3-7.2-21.2-10.6-31.2c-4.1,2.6-10.4,8.5-17.8,10.6c-7.7,2.1-16.5,0.5-25.3-1.4c32.6-23.9,29.7-51.7,13.8-79.4
		c-32.6,1.3-62.5-3.5-85.6-31.6c-0.7,1.7-1.4,3.4-2.1,5.1c1.9,1.7,3.9,3.5,5.8,5.2c-3.4,5.3-7.1,1.6-10.8-8
		c-2.1-5.5-7.1-9.9-10.9-14.8c-0.8,0.6-1.6,1.3-2.4,1.9c1.8,3.6,3.5,7.2,5.3,10.8c-1,0.8-1.9,1.6-2.9,2.4
		c-8.8-14.4-32-14.2-33.1-36.8c17.8,0,35.7,0,53.5,0c13.9,0,27.8-0.3,41.6-0.1c8,0.1,16.1,0.3,23.8,2c1.7,0.4,1.9,7.5,3,12.3
		c-0.9,0.1,2.1-0.2,6.5-0.7c0.9,6.9,1.7,13.8,2.6,20.6c0.6,0,1.2-0.1,1.8-0.1c0-14.2,0-28.5,0-43.7c12.9,0,24.9,0,38.2,0
		c0,19.1-0.4,38.4,0.1,57.6c0.5,21.1,2.1,42.1,2.5,63.1c0.2,10,6.2,10.4,13.6,10.6c8.6,0.2,10.7-4,10.4-11.8
		c-0.9-30.5-1.4-61-1.9-91.6c-0.1-8,0-16,0-26.6c46.1,0,91.8,0,138,0C366.1,208,358.8,216.5,342.3,218.3z"/>
	<path d="M101.6,134.9c6.2-2,11.7-6,18.8-10c-6.2-5.7-10-9.3-16.5-15.2c-4.3,7.4-8,12.7-10,18.5C93.4,129.5,99.8,135.5,101.6,134.9z
		"/>
	<path d="M322.5,129.1c-1.4-0.9-2.8-1.8-4.2-2.7c3-3.7,6-7.4,9-11.2c-0.7-1.6-1.3-3.2-2-4.8c-6.4,2.5-14,3.8-18.7,8.2
		c-2,1.8,2,10.2,3.3,15.5C314,132.5,318.2,130.8,322.5,129.1z"/>
	<path d="M224.1,15c-9.6,0.6-17.6,1.1-28.3,1.7c6.7,9.1,10.9,14.8,16.5,22.4C216.4,30.7,219.6,24.3,224.1,15z"/>
</g>
</svg>
