<?xml version="1.0" encoding="utf-8"?>
<!-- Generator: Adobe Illustrator 22.0.1, SVG Export Plug-In . SVG Version: 6.00 Build 0)  -->
<svg version="1.1" id="Calque_1" xmlns="http://www.w3.org/2000/svg" xmlns:xlink="http://www.w3.org/1999/xlink" x="0px" y="0px"
	 viewBox="0 0 400 400" style="enable-background:new 0 0 400 400;" xml:space="preserve">
<g>
	<path d="M376.3,65c0.4-10.8,0.8-21.5-11.5-26.6C348.7,31.5,343.4,22.6,346,6c-19.5-0.5-27.7,8.9-28.1,30.4c-0.1,5-2.8,11-6.3,14.6
		c-10.1,10.5-8.6,23,4.8,31.4c1.9-2.7,3.8-5.3,5.7-8c1.3,0.4,2.6,0.8,3.9,1.3c-1.2,4.3-2,12.1-3.6,12.2c-9.4,0.9-18.9,0-27.5-0.2
		c0.4-10.1,0.7-16.9,1.1-25.1c-10.7,1.5-19,2.8-31,4.5c2.2-7,4.4-12,5.2-17.2c0.8-5.2,1.7-11.4-0.5-15.7c-1.4-2.7-11-4.9-12-3.7
		c-6.7,9.1-11.6,2.3-16.9-0.9c-26.8-16.3-53.2-15.8-79.2,1.9c-2.7,1.8-5.6,3.3-8.6,5.1c-3.7-2.9-7-5.4-10.3-7.9
		c-10.4,6-13.2,13.6-8.5,24.3c1.4,3.3,0.5,7.6,0.6,11.5c-4.3,0-9.1,1.1-12.9-0.3c-6.3-2.3-12-6.2-17.9-9.4c-1.4,1.3-2.9,2.5-4.3,3.8
		c4.2,7.7,8.8,15.1,12.3,23.1c1.4,3.3,1.7,9.1-0.3,11.4c-8.6,10.1-22.7,7.7-30.1-4.4C93.3,84.7,99.8,75.6,97.7,64
		c-1.2-6.2-9.1-11.2-14-16.7C76.6,21.2,61.8,6.9,43,10.8c2.9,12.5,5.9,25,9.3,39.5c-5.5-0.9-7.2-1.3-9-1.5
		c-9.6-0.9-17.6,1.4-19.1,12.3c-1.1,8.5-2.8,18.3,11.8,16.2c1.3-0.2,3.7,2.9,4.5,4.9C47,99.5,58,112.5,76.2,118.7
		c-7.6,4.8-14,8.8-20.4,12.8c0-0.1,0.1-0.2,0.1-0.3c-3.4,2.5-6.8,5.1-11.4,8.6c5.4,3.7,8.7,5.9,9,6.1c0,18.6-1.2,34.7,0.4,50.5
		c1.2,12.5,3.7,23.8-12.8,26.8c8.3,21.2,18.2,21.8,35.7,4.5c9,1.4,16.7,2.6,24.4,3.8c0.7-6.8,4-14.7,1.7-20.3
		c-5.2-12.2-5.5-23.5-1.8-36c1.2-4.1-1.6-9.3-2.8-14.7c-6.2,3.8-10.6,6.5-17.3,10.7c5.6-14.6,14.2-19.6,32.4-21.3
		c4.1,24,11.5,25.2,40.4,6.3c49.7,31.3,51.3,31.1,100.4-5.3c14,4.7,27.3,9.2,40.4,13.5c1.7-3.6,2.7-4.8,2.9-6.1
		c0.6-5.5,1-11.1,1.5-16.7c23.7,0.7,35.4,8.7,32.9,18.7c-6.2-0.6-13.8-3.7-16.8-1.2c-11.5,9.3-2.3,18.4,3.1,26.6
		c-16.6,20.9-17.4,30.7-3.4,49.3c15.1-26,33.5-11.1,50.5-2.6c1.3-11,1.8-20.3,3.7-29.4c4-19.7,6-38.8-6.8-56.4
		c-1.1-1.5-2.7-3.9-2.1-5.1c8.8-18.5-6.5-21-18.8-26.7c12.8-8.9,21.9-19.7,20.3-35.5C359.8,64,360.1,63.2,376.3,65z M244.7,82.1
		c2.5-15.6-1.3-25.6-14.4-30.8C250.7,52.2,255.2,61.1,244.7,82.1z M243.2,41.1c-0.1,1.9-0.2,3.8-0.3,5.7
		c-18.2-1.9-36.4-3.8-54.6-5.7C206.7,41.1,224.9,41.1,243.2,41.1z M237.9,35.7c-25.3,0-48.1,0-70.5,0
		C187.1,17.9,211.6,17.1,237.9,35.7z M140.3,33.6c10.5,8.9,21,10.2,31.5,9.5c-6.6,0.8-13.2,1.7-19.8,2.6c-4.4,0.6-8.7,1.4-15.3,2.5
		C137.5,44.4,138.7,39.9,140.3,33.6z M169.9,49.4c-4.9,10.8-9.5,21-14.1,31.1c-1.9-5.7-3.7-11.3-5.6-17l0,0
		C157,58.6,163.9,53.7,169.9,49.4z M45.4,82.4c-2.1-5.5-8.2-9.5-12.5-14.2c-2.1,0.4-4.1,0.7-6.2,1.1c2.7-5.2,4.2-12.4,8.5-15.1
		c3.1-1.9,10,2.1,17.1,4c5.9-12.4,2.7-26.4-1.8-40.3C70.1,18,78.1,33.1,72.8,61.8c2-0.7,3.3-1.4,4.6-1.7c4.7-0.9,9.4-1.6,14.1-2.3
		c0.2,5,1.9,10.6,0.2,14.8c-1.2,3.1-7.2,4-10.5,6.5c-2.7,2-6.9,6.3-6.3,7.5c3.4,6.8,8,13.1,12.2,19.6c-0.1,0-0.2-0.1-0.2-0.1
		c3.5,4.6,7.1,9.1,11.5,14.9C74.5,115.5,54.7,106.8,45.4,82.4z M98.7,169.8c-3.6,9-6.4,16.1-8.9,22.2c3.8,10.2,7.8,21.1,11.8,32.1
		c-1.4,1.3-2.7,2.7-4.1,4c-7.8-3-15.5-5.9-23.4-8.9c-10.1,18-16.2,20.1-27.4,7.9c18.7-8.7,9.7-24.4,9.8-38.1
		c0.1-13.1,1.1-26.1,3.7-39C72.3,174.9,73.3,175.6,98.7,169.8z M147.3,135.3c-1.4,3.1-0.4,7.2-1.6,10.4c-2.3,5.9-4.2,12.9-8.6,16.5
		c-3.5,2.9-10.6,1.5-16.1,2c-0.4-6.6-0.8-13.2-1.4-22.9c-11.1,4.4-23.1,9.3-35.2,13.9c-4.1,1.6-8.5,2.4-12.8,3.6
		c1.6-5.1,3.1-10.4,5-15.4c0.5-1.2,2.7-1.8,3.6-5c-8.9,0.7-17.7,1.5-27.9,2.3c1.5-4.1,2.4-6.6,3.3-9c11.9-1.9,23.7-3.9,35.6-5.7
		c10.8-1.7,21.6-3.3,31.4-7.4c-11.6-4-23.2-8-34.8-12.1c2.8-1,5.7-2.6,8.5-2.7c14.6-0.4,22.9-7.8,25.2-19.1
		c-6-6.8-10.9-12.3-18-20.3C141.8,69.2,161.2,104.1,147.3,135.3z M200.2,161c-12-2.2-23.7-3.1-27.8-17.5c-0.3-0.9-0.5-2.5-0.8-2.6
		c-23.6-0.2-13.4-15.8-13.5-27.7c0-7.3-3.5-14.6-5.5-21.9c3.6-1.2,7.1,11.1,10.7,0c6.1,2.1,12.1,4.1,21,7.1
		c-11.5-11.6-17.7-23.3-12.3-36.3c2.7-6.5,10.9-10.8,18.7-14.1c-10.7,8-19.6,18.2-14,30.7c4.1,9.2,15.2,15.3,24.4,21.6
		c-1.6-18.6-11.3-35.6-1.5-53.2c1.6-0.2,3.1-0.3,4.7-0.5c1.4,15.4,2.7,30.8,4.6,51.7c7.7-8.5,15.4-13.5,17.5-20.2
		c4.7-15-5.5-23.5-19.2-28.7c1.1-1.4,2.3-2.8,3.4-4.2c6.2,4.1,14.4,6.9,18.2,12.6c7.4,11,2.5,27.6-9.5,40.3c9.4-2.3,18.5-4.4,25.1-6
		c1,10.6,5.2,22.9,2.4,33.3c-2.7,10.1-11.8,19-19.7,26.9c-4.3,4.4-11.9,5.5-18.9,6.9c2.6-2.2,5.2-4.5,10.6-9.2
		c-6.6,2.1-10,3.2-10.6,3.4c0-13.8,0-28.1,0-42.4c-1.7-0.1-3.3-0.3-5-0.4C202.1,126.7,201.2,143,200.2,161z M206.9,174.1
		c-1.1-1.2-2.2-2.4-3.3-3.6c16.7-11.5,33.4-22.9,51.1-35.1C247.4,159.9,225.5,164.9,206.9,174.1z M367.4,176.2
		c-0.5,15.9-4.4,31.7-6.8,47.8c-14.9-1.7-13.9-10.5-11.8-17.2c-10.9,6.1-22.4,12.5-34.1,19c-8.3-17.7-6.7-22.2,13.1-41
		c-6.8-5.5-18.3-8.9-10.7-22.8c9.3,5.7,20,10.5,26.9-1.1c4.5-7.5,4.1-16.9-6.2-21.8C354.9,140.7,368.1,155.6,367.4,176.2z
		 M357.5,134.1c-8.8,0.5-17,0.9-25.2,1.4c-0.1,0.9-0.2,1.9-0.3,2.8c1.9,0.3,3.8,0.6,5.7,0.9c0.2,3.1,0.4,6.2,0.5,8
		c-16-4.4-31.6-8.6-48.9-13.3c1.9,10,3.1,16.4,5,26.2c-12.2-4.4-21.1-7.5-29.9-10.7c-1.7-0.6-4.2-1.7-4.6-3.1
		c-4.3-13.1-11.6-26.5-11.1-39.5c0.4-10.4,9.2-21.7,17-30c5.4-5.7,15.5-6.9,23.5-10.1c1,1.2,2,2.4,3,3.6c-1.8,4.9-3.7,9.8-6.6,17.7
		c11.6,2.9,23.6,5.9,36.3,9c-7.1,10-17.8,13-30.8,11.2c0,1.8-0.1,3.5-0.1,5.3c14.5,2.3,29,5.3,43.6,6.6
		C349.1,121.2,351,121.5,357.5,134.1z M356.1,81.1c3.8,20.6-15.9,34.8-43.3,32.8c5.9-5.4,14-9.7,16.8-16.2c2.8-6.6,1.8-15.8-0.6-23
		c-0.9-2.7-10-2.7-17.3-4.3c-3.6-12.8-0.3-17.9,14.9-16.7c-3.9-16.1-10.1-33,12.1-43.6c4.1,13.5,7.7,25.1,11.1,36.3
		c12.1-8.5,19.4-5.3,21.8,11.8C357.2,59.4,353.4,66.4,356.1,81.1z"/>
	<path d="M120.5,188.8c-0.5,1.9-2.2,5-2.1,8c0.9,38.9,0.9,77.9,3.7,116.7c1.6,23,14.4,40.8,35.4,52.2c17.2,9.3,34,19.4,49.4,28.3
		c10.5-5.7,21.3-13.4,33.3-17.9c38.7-14.5,53.4-50.7,51.1-94.8c0.1,0,0.3,0.1,0.4,0.1c0-32.4,0-64.8,0-97.7
		C233,204.1,177.3,193,120.5,188.8z M288.9,236.3c-0.1,14.4-2.2,28.7-3,43.1c0,0.5,3.2,1.2,5.3,1.9c-2.9,13.1-6.2,26.2-8.7,39.4
		c-4.9,26-21,41.7-44.8,51.3c-11.1,4.4-21.5,10.4-31.5,15.3c-12-6.6-25-14.2-38.4-21c-21.5-11-37.6-25.9-41-51.3
		c-0.1-0.9-0.7-1.9-0.5-2.8c2.9-17.9-7.3-34.2-5.9-52.1c1.6-19.5,1-39.1,1.5-58.7c0.1-2.3,1-4.6,2.1-9.1
		c26.5,9.8,56.1-1.2,81.9,10.7c25.3-3.3,51.5-6.7,80.3-10.4C287.2,206.5,289,221.4,288.9,236.3z"/>
	<path d="M169.4,222.3c-4.5,6.9-9.1,18.7-6.1,24.5c7,13.4,6,31.5,25.3,39c18.1,7,17.5,11.2,4.8,27c10,8,7.5,17.2-0.4,24
		c-7.3,6.2-16.6,9.9-25.1,14.7c13.8,17.6,67.3,16.7,82.9-2.5c-1.9-0.9-2.7-1.5-3.6-1.6c-24.2-5.2-27-9.2-23.3-33.8
		c0.2-1.6-0.4-4.1-1.5-5.2c-10.2-9.6-5.5-16.7,4.7-20.4c19.1-6.9,22.5-24.8,27.6-40.2c2.5-7.5-1.3-19.3-6.2-26.2
		c-3.4-4.7-13.8-5.6-21.1-6c-13.3-0.8-26.7-0.6-39.9,0.4C181.2,216.5,172.2,218,169.4,222.3z M221.2,340.3c7.3,3,13.7,8.4,20,12.5
		c-16.4,8-39.9,8.7-64.6,1.5c7.7-5.9,14.8-13.5,23.5-16.9C205.9,335.1,214.6,337.7,221.2,340.3z M209.6,302.2
		c-6.1-22.8-39.3-23.7-36.2-49.2c24,0,47.2,0,70.5,0C243.8,279,216.8,281.8,209.6,302.2z M234.7,222c-2,1.2-3.3,2-4.5,2.7
		c4.4,1.9,8.9,3.8,13.3,5.8c-0.1,1-0.1,1.9-0.2,2.9c-23.1,0-46.1,0-69.2,0C191.5,218.9,211.6,215,234.7,222z"/>
</g>
</svg>
