<?xml version="1.0" encoding="utf-8"?>
<!-- Generator: Adobe Illustrator 22.0.1, SVG Export Plug-In . SVG Version: 6.00 Build 0)  -->
<svg version="1.1" id="Calque_1" xmlns="http://www.w3.org/2000/svg" xmlns:xlink="http://www.w3.org/1999/xlink" x="0px" y="0px"
	 viewBox="0 0 400 400" style="enable-background:new 0 0 400 400;" xml:space="preserve">
<style type="text/css">
	.st0{fill:#498426;}
	.st1{fill:#2D5413;}
</style>
<g>
	<path class="st0" d="M105.3,291.1c0.7-3.2,1.3-6.4,2.2-9.5l2.4-9.4l2.3-9.4c1.5-6.3,2.9-12.6,4.2-19l-1.1-0.4
		c-3,5.8-5.7,11.6-8.5,17.5l-4.1,8.8l-2.6,6c0.1-1.1,0.2-2.2,0.3-3.3l1-11.1l0.8-11.2c0.5-7.4,1-14.9,1.3-22.4l-1.1-0.2
		c-2.1,7.2-3.9,14.4-5.8,21.7L94,260.1L91.5,271c-0.8,3.5-1.8,7-2.7,10.5c0.1-2.6,0.1-5.2,0-7.8c-0.2-4.5-0.5-9-0.6-13.4l-0.3-13.4
		l-0.5-13.4c-0.4-9-0.7-17.9-1.3-26.9l-1.1,0c-1.2,8.9-2.2,17.8-3.2,26.7l-1.4,13.4l-1.2,13.4c-0.4,4.5-1,8.9-1.5,13.4
		c-0.1,0.6-0.1,1.1-0.2,1.7c-0.1-0.7-0.3-1.3-0.4-2l-1.8-10.1l-2-10.1c-1.4-6.7-2.7-13.4-4.3-20.1l-1.1,0.1
		c-0.2,6.9-0.2,13.7-0.2,20.5l0.1,10.2l0.2,6c-1-2.8-1.9-5.7-2.8-8.5l-4-12.8L57,235.5c-2.8-8.5-5.6-17-8.6-25.5l-1.1,0.3
		c1.3,8.9,2.8,17.7,4.2,26.6l2.3,13.2l2.5,13.2c0.8,4.4,1.5,8.8,2.2,13.3c0.7,4.4,1.8,8.8,3.2,13c1.4,4.3,3,8.5,4.8,12.6
		c1.9,4.1,3.9,8.2,6.6,12.2l1.1-0.3c0.1-1.1,0.2-2.2,0.3-3.3c0.5,1,1.1,2.1,1.7,3.1l1.1-0.1c1-2.7,1.6-5.4,2-8
		c0.5,2.6,1.1,5.2,2,7.7l1.1,0c1.8-4.4,2.9-8.8,3.9-13.3c0.1-0.7,0.3-1.4,0.4-2.1c0,1.9,0,3.8,0.1,5.8c0.2,3.8,0.6,7.6,1.6,11.6
		l1.1,0.2c0.1-0.2,0.3-0.4,0.4-0.6c0,0.4,0.1,0.8,0.1,1.2l1.1,0.4c2.6-2.5,4.6-5.2,6.4-8c1.8-2.8,3.4-5.6,4.7-8.6
		C103.6,297.3,104.6,294.2,105.3,291.1z"/>
	<path class="st0" d="M133.3,248.7l-7.1,10.9l-6.9,11c-2.3,3.7-4.8,7.3-7.2,10.9c-2.4,3.6-4.5,7.4-6.3,11.4c-1.8,4-3.4,8-4.8,12.2
		c-1.4,4.2-2.6,8.5-3.2,13l1,0.5c3.5-3,6.5-6.3,9.3-9.7c2.8-3.4,5.3-7,7.7-10.6c2.4-3.6,4.4-7.4,6.2-11.4c1.7-4,3.4-8,5.3-11.9
		l5.6-11.8l5.4-11.8c3.6-7.9,7.1-15.9,10.5-23.9l-1-0.5C142.8,234.1,138.1,241.4,133.3,248.7z"/>
	<path class="st0" d="M321.8,111.1c-3,8.5-5.8,17-8.6,25.5l-4.1,12.8l-4,12.8c-0.9,2.8-1.8,5.7-2.8,8.5l0.2-6l0.1-10.2
		c0-6.8,0-13.7-0.2-20.5l-1.1-0.1c-1.6,6.7-2.9,13.4-4.3,20.1l-2,10.1l-1.8,10.1c-0.1,0.7-0.2,1.3-0.4,2c-0.1-0.6-0.1-1.1-0.2-1.7
		c-0.5-4.5-1.1-8.9-1.5-13.4l-1.2-13.4l-1.4-13.4c-1-8.9-2-17.8-3.2-26.7l-1.1,0c-0.6,9-0.9,17.9-1.3,26.9l-0.5,13.4l-0.3,13.4
		c-0.1,4.5-0.4,9-0.6,13.4c-0.1,2.6-0.1,5.2,0,7.8c-0.9-3.5-1.9-7-2.7-10.5l-2.5-10.9l-2.7-10.9c-1.9-7.2-3.7-14.5-5.8-21.7
		l-1.1,0.2c0.3,7.5,0.8,14.9,1.3,22.4l0.8,11.2l1,11.1c0.1,1.1,0.2,2.2,0.3,3.3l-2.6-6l-4.1-8.8c-2.8-5.9-5.5-11.7-8.5-17.5
		l-1.1,0.4c1.3,6.4,2.7,12.7,4.2,19l2.3,9.4l2.4,9.4c0.8,3.1,1.4,6.3,2.2,9.5c0.7,3.2,1.7,6.2,3.1,9.1c1.4,2.9,2.9,5.8,4.7,8.6
		c1.8,2.8,3.8,5.5,6.4,8l1.1-0.4c0.1-0.4,0.1-0.8,0.1-1.2c0.1,0.2,0.2,0.4,0.4,0.6l1.1-0.2c1-3.9,1.4-7.8,1.6-11.6
		c0.1-1.9,0.1-3.8,0.1-5.8c0.1,0.7,0.3,1.4,0.4,2.1c1,4.4,2.1,8.9,3.9,13.3l1.1,0c0.8-2.6,1.5-5.2,2-7.7c0.4,2.7,1.1,5.3,2,8
		l1.1,0.1c0.6-1,1.2-2.1,1.7-3.1c0.1,1.1,0.1,2.2,0.3,3.3l1.1,0.3c2.6-4,4.7-8.1,6.6-12.2c1.8-4.2,3.4-8.4,4.8-12.6
		c1.4-4.3,2.4-8.6,3.2-13c0.7-4.4,1.3-8.9,2.2-13.3l2.5-13.2l2.3-13.2c1.5-8.8,3-17.7,4.2-26.6L321.8,111.1z"/>
	<path class="st0" d="M264.4,193.9c-1.8-4-3.9-7.7-6.3-11.4c-2.4-3.6-4.9-7.2-7.2-10.9l-6.9-11l-7.1-10.9
		c-4.8-7.3-9.5-14.5-14.5-21.7l-1,0.5c3.4,8,7,15.9,10.5,23.9l5.4,11.8l5.6,11.8c1.9,3.9,3.6,7.9,5.3,11.9c1.8,4,3.8,7.8,6.2,11.4
		c2.4,3.6,4.9,7.2,7.7,10.6c2.8,3.4,5.8,6.7,9.3,9.7l1-0.5c-0.7-4.6-1.9-8.9-3.2-13C267.8,201.9,266.1,197.9,264.4,193.9z"/>
</g>
<path class="st1" d="M73.2,252.8l2,10.1l1.8,10.1c0.6,3.4,1.4,6.7,2.1,10c0.7,3.3,1.1,6.7,1.1,10.1c0,3.4-0.2,6.9-0.6,10.3
	c-0.5,3.5-1.1,7-2.4,10.5l-1.1,0.1c-2-3.2-3.3-6.5-4.5-9.8C79.4,297.4,73.4,261.6,73.2,252.8z"/>
<path class="st1" d="M102.3,250.1l-0.8,11.2l-1,11.1c-0.4,3.7-0.5,7.5-0.7,11.2c-0.2,3.7-0.8,7.4-1.7,11c-0.9,3.6-2,7.2-3.4,10.7
	c-1.4,3.5-3,7.1-5.2,10.5l-1.1-0.2c-1-3.9-1.4-7.8-1.6-11.6c8.1-6.7,15.1-66.3,16.8-76.3C103.5,227.7,102.7,242.7,102.3,250.1z"/>
<path class="st1" d="M138.2,251.4l-5.4,11.8l-5.6,11.8c-1.9,3.9-3.6,7.9-5.3,11.9c-1.8,4-3.8,7.8-6.2,11.4
	c-2.4,3.6-4.9,7.2-7.7,10.6c-2.8,3.4-5.8,6.7-9.3,9.7l-1-0.5c17.3-24.4,51-90.6,51-90.6S141.8,243.5,138.2,251.4z"/>
<path class="st1" d="M322.9,111.3c-1.3,8.9-2.8,17.7-4.2,26.6l-2.3,13.2l-2.5,13.2c-0.8,4.4-1.5,8.8-2.2,13.3
	c-0.7,4.4-1.8,8.8-3.2,13c-1.4,4.3-3,8.5-4.8,12.6c-1.9,4.1-3.9,8.2-6.6,12.2l-1.1-0.3c-0.5-4.7-0.4-9.3-0.1-13.8
	C306.7,194.8,322.9,111.3,322.9,111.3z"/>
<path class="st1" d="M285.2,107.4c1.2,8.9,2.2,17.8,3.2,26.7l1.4,13.4l1.2,13.4c0.4,4.5,1,8.9,1.5,13.4c0.5,4.5,0.7,8.9,0.5,13.4
	c-0.2,4.5-0.6,9-1.2,13.5c-0.7,4.5-1.5,9-3,13.5l-1.1,0c-1.8-4.4-2.9-8.8-3.9-13.3C294,194.9,285.2,107.4,285.2,107.4z"/>
<path class="st1" d="M263.3,161.9l4.1,8.8l3.9,8.9c1.3,3,2.8,5.8,4.2,8.8c1.4,2.9,2.5,6,3.2,9.1c0.7,3.2,1.3,6.4,1.6,9.7
	c0.3,3.3,0.4,6.7-0.1,10.3l-1.1,0.4c-2.6-2.5-4.6-5.2-6.4-8c-1.8-2.8-3.4-5.6-4.7-8.6c2.7-20.1-11.9-50.4-13.1-56.8
	C254.8,144.4,260.5,156.1,263.3,161.9z"/>
</svg>
