<?xml version="1.0" encoding="utf-8"?>
<!-- Generator: Adobe Illustrator 22.0.1, SVG Export Plug-In . SVG Version: 6.00 Build 0)  -->
<svg version="1.1" id="Calque_1" xmlns="http://www.w3.org/2000/svg" xmlns:xlink="http://www.w3.org/1999/xlink" x="0px" y="0px"
	 viewBox="0 0 400 400" style="enable-background:new 0 0 400 400;" xml:space="preserve">
<g>
	<path d="M99,215.6c8.5-41.7,35-66.6,73.6-80.3c3.6-11.5,5.6-23-6.7-30.6c-11.6-7.2-19.9-15.8-18.2-31.7
		c-29.1,16.1-14.5,38.2-10.6,59.1c-13.6-16.1-43.1,1.3-48.7-26.8c-13.7,18-10.8,32.5,6.8,43.4c4.2,2.6,6.4,8.6,9.7,13.2
		c-21.1,0-38.7,0-56.4,0c0.4,21.4,2,22.9,22.3,29.6c5.6,1.9,9.6,8.4,14.3,12.9c-0.7,1.4-1.4,2.9-2.1,4.3c-13.6-3-22.3,2.3-29.9,12.9
		c-3.2,4.5-12.2,4.9-19.5,7.5c-1,14.6,10,23.4,28.9,22c6.4-0.5,12.9,1.1,18.5,1.6c-7.6,9.7-14.7,16.3-18.5,24.4
		c-4.6,9.9-8.1,19.1-22.5,16c4,15.6,15.8,16.1,26,14.2c9.5-1.7,18.2-7.6,29.2-12.6c-2.1,8.4-5.1,13.9-4.5,18.9
		c2,15-3,24.6-18.7,27.5c12.4,16,28.4,16,41.7,2c5-5.2,12.4-8.1,18-11.6c0,11.2-2.5,20.3,0.6,26.7c5.1,10.5,5.8,19.2-1.8,28.4
		c22.5,4.3,30-0.8,32.1-21.2c1.1-10.8,6.3-15,17-12.3c2.6,0.7,5.4,0.7,9,1.1c0-6.4,0-12.1,0-18c-2.8-0.5-4.6-0.9-6.4-1.2
		C126.4,327,87.7,271.4,99,215.6z"/>
	<path d="M366.2,245.6c-2.9-21.8-14.4-29.8-34.7-26.6c-5.4,0.8-11.3-1.7-15-2.4c7-9.6,14.2-16.6,18-25.1c4.5-10.3,8.2-19,22.8-15.4
		c-16.8-27.5-36-8.7-54.7-3.3c9-15.5-7.8-41.7,23.3-44.3c-15.7-17.2-33.4-15.6-43.6,1.5c-2.2,3.6-6.3,6.8-10.2,8.4
		c-14.2,6.1-15.4,11.2-4.6,21.8c57.8,56.4,36.8,147.1-39.9,172.4c-10.6,3.5-14,11.9-7.7,21.2c3.1,4.5,7.2,9.1,11.9,11.5
		c11.9,6.1,18.8,14.8,17.8,28.8c16.9-6.5,22.8-21.8,15.6-37.3c-2.8-6.1-4.3-12.8-6.5-19.4c9.9,3.5,17,7.1,24.5,8.3
		c11.7,1.9,23.5,2.4,25.1,18.8c13.6-18.5,10.9-32.7-5.8-43.5c-4.2-2.7-6.6-8.4-10.9-14.2c13.1,0,21.9-0.2,30.7,0.1
		c8.7,0.3,17.4,1.1,26.4,1.6c2-18-2.7-26-21.3-29.5c-10.7-2-13.4-7.9-13.4-14.1c9.4-4.3,18.8-6,23.7-11.5
		C346,244,353.7,238.5,366.2,245.6z"/>
	<path d="M227.1,292.5c6.1-0.6,11.9-4.8,17.8-7.8c-8.4,1.9-16.8,3.8-25.3,5.6c-7.8,1.7-13.2-1.3-13.6-9.5c-0.4-7.9,1.3-15.1,12-13.6
		c1-5.7,2.1-11.3,3.1-17c-0.1,0.1-0.3,0.3-0.4,0.4c6.5-10.1,15.3-19.6,19.1-30.6c5.3-15.5,6.9-32.2,10.1-48.4
		c2-10.2,4.2-20.5,6.3-30.7c-1.2-0.4-2.4-0.9-3.7-1.3c-2.1,3.7-4.3,7.5-6.4,11.2c0.4-0.1,0.9-0.3,1.3-0.2c0.4,0.1,0.9,0.6,0.9,0.9
		c-0.3,5.8,0.3,11.9-1.3,17.4c-4.8,16.7-10.5,33.1-15.9,49.6c3.9,2,5.5,4.5,4.8,5.8c-4.8,8.9-10,17.6-15.2,26.4
		c-4,4.5-8,9.1-13.2,15c-1.3-15.8-2.4-28.7-3.7-43.8c-2.1,16.8-3.9,31.1-5.6,45.3c0,0-0.1,0-0.1,0c0,0.1,0,0.2,0.1,0.3
		c0,0,0.1-0.1,0.2-0.2l0.2-0.2c-0.2,2.9-0.3,5.9-0.5,8.8c-0.7-1.2-1.9-2.6-3.8-4.1c-0.6-0.5-0.4-3.1,0.4-4c0.6-0.7,2.2-0.5,3.5-0.6
		c-0.7-3.5-0.5-8.3-2.6-9.9c-14.6-11.2-9.5-30.1-17.5-43.7c-0.8-1.3-0.8-4.2,0.2-5.1c13.2-12.9,3.6-24.1-2.3-35.6
		c0.7,6.9,3.6,14.6,1.6,20.6c-7.5,22.7,0.1,41.7,10.9,60.8c2,3.5,1.8,9.8-0.1,13.4c-1.5,2.9-7.1,5.2-10.8,5
		c-7.8-0.5-15.5-2.7-27.6-5.1c6.5,7.6,10.6,12.2,14.6,16.9c6.9,3.4,13.6,8.9,20.9,9.8c9.7,1.2,11.8,6.2,11.4,13.9
		c-1.1,22.4-3,44.9-3.8,67.3c-0.1,4.3,2.4,9.8,5.6,12.8c2.2,2,9.3,2.2,11.2,0.3c3.1-3.1,5.3-8.7,5.1-13.2
		c-1.2-21.1-3.3-42.1-5.1-63.2C208.7,299.6,214.2,293.8,227.1,292.5z M175.8,286.8c4.5-0.4,9.4,0,13.5-1.5c2.9-1.1,6.5-2.2,8.3-4
		c-0.1,2.5-0.3,5.1-0.4,7.6C190.1,288.2,182.9,287.5,175.8,286.8z M205.2,332.4c-1,0-1.9,0-2.9,0c0-11.1,0-22.2,0-33.3
		c1,0,1.9,0,2.9,0C205.2,310.2,205.2,321.3,205.2,332.4z"/>
	<path d="M173,135.3c0,0,0-0.1,0-0.1C173,135.2,173,135.2,173,135.3c-0.1,0-0.2,0-0.4,0.1c0,0.1-0.1,0.3-0.1,0.4
		C172.7,135.6,172.9,135.4,173,135.3z M172.8,135.4c-0.1,0.1-0.2,0.2-0.2,0.2C172.7,135.6,172.8,135.5,172.8,135.4z"/>
	<path d="M170.6,151.1c0.4,6,2.6,12,4.1,18c0.8-10-2.1-24.2,3.3-29c9.3-8.2,6.8-16.6,7.2-25.2c0.7-15.3-7.6-31.8,6.3-45.3
		c0.8-0.8,1.4-3.2,0.9-3.9c-9-10.8-0.1-21.1,0.6-31.6c3.5-0.3,7.5,4.1,10.7-2.7c2.1-4.5,8.5-7,13-10.4c0.6,0.7,1.2,1.4,1.8,2.1
		c-3,3.6-6,7.2-6.6,7.8c3.4,10,6,17.4,8.5,24.9c5.1-1.2,10.9-2.6,19.1-4.6c-8.2,9.1-14.7,16.4-21.2,23.7c1.4,1.1,2.8,2.2,4.2,3.3
		c12.4-14.3,24.8-28.5,37.2-42.8c0.1,0.5,0.3,1.1,0.4,1.6c-7,14.4-14.1,28.8-21.2,43.4c2.7-0.7,5.4-1.4,9.1-2.3
		c-2.9,6.8-5.2,12.2-7.5,17.5c-9.2,5-13.2,12.1-8.3,22.4c3-1.4,6.4-3,11-5.2c-4.2,12.1-7.7,22.2-11.2,32.4
		c11.4-12.2,25.1-23.5,16.8-43.2c-4.1,2-8,3.9-14,6.9c2.7-6.1,4.3-9.6,5.8-13.1c13-12,24.6-24.9,28.3-43.7c-3.6,0.2-5.6,0.4-8.6,0.6
		c4-7.1,8.4-13.1,11-19.8c2.5-6.5,3-13.8,4.6-21.4c-13.4,0.3-19.8,8.3-23.7,17.6C245.1,46,241,49.1,223.7,46.7
		C221.9,32.3,240,20.3,230,6c-11.6,7.4-23.2,14.7-34.5,22.3c-1.6,1.1-2,3.8-3,5.8c0.1,0,0.2,0,0.2,0c-8.3,22.1-18.4,43.8-12.4,68.5
		c2.9,12.1,2.9,23.6-7.3,32.7C172.1,140.5,170.3,145.9,170.6,151.1z"/>
	<path d="M210.7,280.3c2.9,0.4,6,1.8,8.6,1.2c10.4-2.5,20.8-5.6,34.2-9.3c-3.1,5.3-4.9,8.3-6.4,10.9c3.8-3.9,7.6-7.8,11.4-11.8
		c-0.9-1.1-1.8-2.1-2.7-3.2c-12.7,2.1-25.6,9.1-37.8-0.6c-1.1,1.6-2.2,3.2-3.2,4.9C213.4,275,212.1,277.7,210.7,280.3z"/>
	<path d="M246.1,284.2C246.1,284.2,246,284.2,246.1,284.2c-0.5,0.1-0.9,0.3-1.2,0.5c0.5-0.1,1-0.2,1.4-0.3l0,0
		c0.3-0.5,0.5-0.9,0.8-1.4C246.8,283.4,246.4,283.8,246.1,284.2C246,284.2,246.1,284.2,246.1,284.2z"/>
	<path d="M218.1,267.5c0.1-0.1,0.1-0.2,0.2-0.2c-0.1,0-0.1,0-0.2,0C218,267.3,218,267.4,218.1,267.5
		C218,267.5,218,267.5,218.1,267.5z"/>
	<path d="M216.5,180.7c4.2-16.7,8.3-33.4,12.9-51.9c-4.8,1.8-9.2,3.4-13.5,4.9c-0.9-2-1.8-4-2.6-6c-3.2,10.1-6.1,19.3-9,28.5
		c0,0,0,0.3,0,0.3c0.4,3.4,0.8,6.8,1.5,13.4c4.9-6.7,8-11,12.1-16.6c-1.7,10-3,18.4-4.4,26.8C214.5,180.3,215.5,180.5,216.5,180.7z"
		/>
	<path d="M194.6,158.8c3.1-13.3,5.8-25,8.5-36.7c-1.1-0.7-2.3-1.3-3.4-2c-3.5,3.9-7,7.7-11.3,12.5c4.2,0.8,6.3,1.2,7.2,1.3
		c-2.1,13-4,24.8-5.8,35.8c4.3-3.9,9.4-8.6,14.5-13.3c0,0,0-0.3,0-0.3C201.9,156.9,199.4,157.5,194.6,158.8z"/>
</g>
</svg>
