<?xml version="1.0" encoding="utf-8"?>
<!-- Generator: Adobe Illustrator 22.0.1, SVG Export Plug-In . SVG Version: 6.00 Build 0)  -->
<svg version="1.1" xmlns="http://www.w3.org/2000/svg" xmlns:xlink="http://www.w3.org/1999/xlink" x="0px" y="0px"
	 viewBox="0 0 22 22" style="enable-background:new 0 0 22 22;" xml:space="preserve">
<style type="text/css">
	.st0{fill:#D5BCB1;}
	.st1{fill:#E2604B;}
	.st2{fill:#61524E;}
	.st3{opacity:0.3;}
	.st4{fill:#14182F;}
</style>
<g id="Calque_1">
	<polygon class="st0" points="13.7,8.2 13.7,7.3 11.7,8.1 11.7,8 8.6,7.1 9.1,12.2 11.9,15.7 12,15.6 12.3,15.5 13.8,14.3 13.7,8.2 
			"/>
	<path class="st0" d="M18.4,10.9l-1.1,2.6l-2,0.3l0.6,0.5l-5.7,3.6L10,17.7l-3.2-4.9l1.1-0.9v-1.7l-1.4,0.6H6.2l0-0.1l-2-0.8
		l-0.6,0.1v2.4l-0.4,0.8l-1.7,0.6v2l2.1,1v0.4l1.1,0.5l0.4,0.7L9.9,21l5.6-3.5l0.2-0.8l1.8,0.5l2.8-1.6v-2.8L18.4,10.9L18.4,10.9z
		 M15.6,14.8L15.6,14.8L15.6,14.8L15.6,14.8z"/>
	<polygon class="st1" points="4.7,10.3 6.2,10.9 6.5,10.9 7.9,10.2 8.2,10.2 8.2,10 5.7,6.7 3.2,9.7 3.6,10.1 4.7,10.3 	"/>
	<polygon class="st1" points="2.6,12.7 1.3,13.9 1.5,13.9 3.6,13.4 3.6,12.5 2.6,12.7 	"/>
	<polygon class="st1" points="11.5,1.4 11.3,1 7.8,6.9 11.5,8.1 11.7,8.1 14.3,7 11.5,1.4 	"/>
	<polygon class="st1" points="18.7,9.8 18.4,9.8 18.3,9.6 15.3,8.9 13.8,11.5 13.8,12.2 13.8,12.2 13.8,12.3 13.7,13.6 13.3,14.5 
		12,15.6 11.9,15.6 8.9,11.3 6.8,12.8 9.9,17.6 10.3,18.1 15.6,14.8 16,14.3 15.8,13.9 17.5,13.6 18.5,10.9 20.3,12.7 20.7,12.4 
		18.7,9.8 	"/>
	<polygon class="st2" points="10.5,10.4 10.2,10.4 10,8.5 10.2,8.3 10.3,8.3 10.5,10.4 	"/>
	<polygon class="st2" points="13.9,16.4 14.1,16.4 14.1,17.6 13.9,17.6 13.9,16.4 	"/>
	<polygon class="st2" points="11.6,17.9 11.8,17.9 11.8,19 11.6,19 11.6,17.9 	"/>
	<polygon class="st2" points="18.9,12.6 19.2,12.6 19.2,14.2 18.9,14.2 18.9,12.6 	"/>
	<polygon class="st2" points="6.8,17.7 6.5,17.7 6.5,15.5 6.8,15.5 6.8,17.7 	"/>
	<polygon class="st2" points="4.8,11.1 5.1,11.4 5.1,12.8 4.8,12.8 4.8,11.1 	"/>
	<polygon class="st2" points="2.6,15.6 2.4,14.7 2.6,14.7 2.6,15.6 	"/>
</g>
<g id="Calque_2" class="st3">
	<g>
		<polygon class="st4" points="14.3,12.5 13.8,12.3 13.7,7.3 13.6,7.3 14.3,7 11.5,1.4 11.4,1.7 11.5,8.1 11.7,8.1 12,15.5 12,15.6 
			12,15.6 11.9,15.6 8.9,11.3 6.8,12.8 7.9,11.9 7.9,10.2 6.5,10.9 6.2,10.9 6.2,13.7 6.8,12.8 9.9,17.6 9.9,21 15.4,17.5 
			15.7,16.7 15.6,14.8 16,14.3 14.3,12.5 		"/>
		<polygon class="st4" points="8.2,10.2 8.2,10 5.7,6.7 6.5,10.9 7.9,10.2 		"/>
		<polygon class="st4" points="20.7,12.4 18.7,9.8 18.4,9.8 18.4,10.9 17.4,13.5 17.4,16.9 17.5,17.1 20.3,15.5 20.3,12.7 
			20.3,12.7 20.3,12.7 20.7,12.4 		"/>
	</g>
</g>
</svg>
