<?xml version="1.0" encoding="utf-8"?>
<!-- Generator: Adobe Illustrator 22.0.1, SVG Export Plug-In . SVG Version: 6.00 Build 0)  -->
<svg version="1.1" id="Calque_1" xmlns="http://www.w3.org/2000/svg" xmlns:xlink="http://www.w3.org/1999/xlink" x="0px" y="0px"
	 viewBox="0 0 400 400" style="enable-background:new 0 0 400 400;" xml:space="preserve">
<g>
	<path d="M359.8,254.5c21.3-8.7,26.8-25.4,25.8-45.7c-1.4-0.8-2.7-1.6-4.1-2.5c-3.1,4.9-6.1,9.7-9.9,15.7c-2.5,0-7.3,0-14.9,0
		c3.8-5.3,7-9.2,9.5-13.5c2.3-4.1,5.8-9,5.1-12.9c-2.1-12.4,3.7-15.6,16.4-13.1c-1.4-9.9-2.6-17.7-3.8-26.4
		c-6.3,2.6-10.2,4.2-12.4,5.1c-1-10.1-1.9-19.5-2.6-27c-8.3,0.5-15.2,0.8-24.4,1.3c12.1-24.6,21-48.8,6.7-76.8
		c-5.4,6.6-10.4,11.1-13.2,16.6c-1.9,3.8-2.7,10.5-0.6,13.7c8.2,12.5,8.7,12.2-7.7,22.8c-2-19.1-3.7-36.1-5.4-53.1
		c0-0.3,0.6-0.8,0.9-1.1c9.6-9.9,2.5-15.9-3.2-21.5c-11.3,8.3-21.4,15.8-31.6,23.3c2.7-10.4-15.6-26.6,12.6-28.7
		c-8.8-5.2-13.9-8.2-22.3-13.2c-1.4,14.9-2.4,26.3-3.4,37.3c-15.9-20.8-31.3-25.3-44.8-13.4c-4.5-2-8.9-3.9-13.2-5.8
		c2.5,15.3,9.1,25.2,23,27.2c1.1-4.9,1.7-8.8,3.2-12.4c0.3-0.6,6.5,0.1,6.6,0.7c1.8,14.1,14.2,10.6,25.6,13
		c-12.7,4-22.4,7-32.2,10.1c0.1,1.5,0.3,2.9,0.4,4.4c6.9,2.3,13.8,4.5,20.7,6.8c-0.2-1.5-0.3-3-0.5-4.5c5.4-1.9,10.8-3.8,16.2-5.8
		c2.3,13.3,13.5,7.2,20.6,9c-3.9,4.2-7.9,8.4-13.1,14c-0.9-0.1-4.7-0.6-8.5-1.1c-0.1,0.7-0.2,1.4-0.3,2.2c8.6,2.2,17.1,4.4,26.4,6.8
		c-1.8,2.8-3.2,5-4.4,6.8c9.8,7.4,26.3-7.4,31.5,10.2c1.7,5.7-1.2,12.8-2.3,22.9c0.9,1.9,3.4,7.8,6.3,13.5c1.5,3,3.3,7.7,5.8,8.2
		c12.6,3,10.4,11,7.9,19.7c-0.8,2.8-1.8,5.8-1.4,8.5c1.2,7.4,3.1,14.7,4.7,22c-0.8,0.2-1.6,0.3-2.4,0.5c-4.2-7-8.4-14.1-12.6-21.1
		c-1.3,0.6-2.6,1.3-3.9,1.9c0.5,4.3,1.1,8.5,1.8,13.6c-10.4-0.8-10.4,4.8-6.7,11.9c2.1,4,4.2,8.2,7.3,11.3
		c11.2,11.3,6.4,21.5-1.8,32.8c-0.3-6.9-0.6-12.7-0.9-18.5c-1.1-0.4-2.2-0.9-3.3-1.3c-5.3,9.1-10.6,18.3-16.6,28.8
		c5.5,14.1-4.7,38.9-18.2,40.6c-1.6-3.7-3.3-7.4-4.7-10.7c-6.2,3.9-11.4,7.2-17.2,10.7c-1.1,9.2,2.4,22.4-12.6,22.5
		c0-12.5,0-24.7,0-39.5c-7.2,3.4-11.3,5.3-17.3,8.1c24.3,13.3,0,20.1,0.6,31.5c-6.5-2.9-11.2-4.9-15.9-7c-12.8,23-12.8,23-40.8,21.7
		c-1.5-0.1-3-0.2-4.5-0.3c-9.2-0.5-16-2.6-16.8-14.4c-0.5-7.8-2.4-18.2-15.8-13.3c-0.9,0.3-4.4-4.8-5.7-7.8
		c-3.1-7.2-5.5-14.7-8.2-22.1c-1.6,0.2-3.2,0.4-4.8,0.5c-0.8,7-4.1,15-1.8,20.8c2.1,5.2,10.3,8,16.9,12.7
		c-20.1,12.2-23.9,10.2-24.7-9.5c-0.1-2.5,0.1-5-0.2-7.5c-1.9-18.4-11.6-30.9-29.9-38.9c-2.2,12.1-4.2,22.9-6.3,33.9
		c-17-9.4-3.9-20.7-3.5-31.6c-9.2-3.3-18.2-6.6-27.4-10c7.8-21,23.3-39.9,9.1-64.8C58,209.2,51,214.2,44,219.2
		c3.9-6.9,9.6-11.3,15.1-15.9c12.4-10.5,15.6-35.8,5.7-44c-2.9,3.3-5.8,6.5-8.4,9.4c2.1,4.8,5.9,10.1,6.2,15.6
		c0.2,3.8-4.6,7.8-7.1,11.7c-1.8,0.1-3.6,0.3-5.4,0.4c-2.1-7-5.7-13.9-6.1-20.9c-0.7-13.4,10.6-14.8,20.2-17.2
		c1.9-6.6,3.8-13.1,5.8-20.4c10.3-0.4,19.5-2.7,13.8-18.3c-6.9,1.6-13.7,3.2-20.5,4.8c-1.3-1.3-2.5-2.6-3.8-3.9
		c17.6-3.9,37.5-6.3,26.5-31.9c17.1-2,35.4-0.8,48.2-16.9c-4.3-2.7-7.9-4.9-15-9.2c10.4-2,17.4-3.4,24.4-4.8
		c0.4-7,16.8-18,22.9-14.3c0,2.9,0,6.3,0,12.8c7.7-6.3,13.3-10.7,20.6-16.6c-23.9-15-42.7-7.7-62.4,8.9c0-12.1,0-21.2,0-34.1
		c-7.3,6.3-11.8,10.3-13.7,12c2.3,7.8,6,16,4.7,16.9c-5.1,3.7-11.9,5-20.6,8.1c-1,6.5-2.6,16.1-4.5,28.5C87.6,66.6,85.5,56,83,43.4
		c-20.9,18.3-13.2,39.8-13.5,59.3c-18.9-2.8-24.9-11.3-21-27.7c-3.1,2-7.5,5.1-7.1,7.5c1.7,13.7,4.6,27.2,7,40.7
		c0.8,4.1,1.6,8.2,2.5,12.3c-8.9-11.1-10.4-25.9-27-29.3c-1.7,9.8-3.5,17.8,7.3,24.4c5.1,3.1,11.1,12.4,2.4,20.8
		c-1.7,1.6-1.7,5.9-1.2,8.8c1.2,7.8,3,15.4,4.7,24c-11.4,0.7-16.1-0.9-13.2-10.6c2.9-9.7-2.4-12.2-10.9-11.6
		c-5.5,23.9,21.1,32.4,22.5,49.6c-4.6,5.5-10.8,9.8-11.6,14.9c-0.8,5.6,3.4,11.9,5.5,18c5,3.9,11.3,8.7,20.4,15.7
		c-13.2-2.7-22.3-4.6-31.4-6.4c-0.3,1.7-0.7,3.5-1,5.2c3.7,1.8,7.3,3.5,10.6,5.1c-1.2,5.2-2.2,9.4-4,17.3
		c16.6-15.3,26.2-9.5,32.5,12.6c8.5,4.5,15.7,8.4,22.8,12.2c-0.9,1.8-1.9,3.6-2.8,5.4c-5-2.5-9.8-6.5-15-7.2
		c-6.7-1-13.7,0.7-24.1,1.4c24.3,10.7,44.2,19.5,66.7,29.4c-0.4,2-1.7,7.7-2.9,13.4c-4.6-2.2-9.2-4.4-16.8-8
		c-1.7,1.4-6.4,5.3-14.9,12.2c19.6,3.1,34.7,5.5,49.9,7.8c0.9,0.1,2.7-0.5,2.7-0.8c1.5-19.4,7.8-8.2,14.2-2.7c1.1,1,5.3-2,8.2-2.5
		c2.7-0.5,5.6-0.1,8.7-0.1c-13.1,8.6-25,16.5-36.8,24.3c1.2,2.3,2.4,4.6,3.6,6.9c16.5-6.8,33-13.7,49.7-20.7c3.6,2.4,7.5,5,11.3,7.5
		c17.3-15.9,20.7-15.5,39.8-2.2c18.4,12.9,38.9,13.7,59.7,10.7c0.2-1.6,0.5-3.2,0.7-4.8c-10.5-1.2-20.9-2.3-31.3-3.5
		c0.2-14.1,5.8-18.4,19.1-15.3c17.5,4.1,34.9,7,52.5,2.2c1.2-1.7,2.4-3.3,3.5-5c-5.7-6-11.3-11.9-17-17.9c-1,2.5-2,5.1-2.9,7.6
		c-5.5,2.1-11,4.3-16.5,6.4c-0.6-5.8-1.2-11.6-1.8-17.7c11.1,0.6,18.8,1,27.5,1.4c-1.8-6-2.9-9.9-5.2-17.8
		c11.7,8.2,28.3-18.1,31.6,13.8c6.9-6.7,11.9-11.6,16.9-16.5c-0.5-1.5-1-3-1.5-4.5c-11.7-1-23.4-2.1-35.1-3.1
		c28.8-4.4,54.2-12.8,60-47.7c-5,1-9.7,1.9-14.1,2.7c0.7,5.1,1.2,9.3,2.4,18.5c-9.2-3.2-18.3-3.6-21.1-7.9
		C341.5,261.1,352.4,257.6,359.8,254.5z"/>
	<path d="M236.8,201.6c-1.3-1.9-2.5-3.8-3.8-5.7c-4.5-6.6-9-13.1-13.6-19.9c-1.2,9.2-2.1,15.3-2.8,20.9c2.1-0.7,5.1-1.7,9.3-3.2
		c0,6.5,0,11.4,0,19.9c-8.7-6.2-14.8-10.6-21.1-15.1c-0.4,2.1-0.8,4-1.2,5.9c5.2,3.8,11.1,7.1,14.9,12c1.8,2.3,0.7,6.9,0.3,10.9
		c-0.3-2.1-0.6-4.3-1.1-7.2c-6.1,3-11.8,5.8-17.4,8.6c3.6,6.5,6.4,13.7,11.2,19.2c8.7,10.2,18.6,19.5,28,29.1
		c-8.2-3.2-16.4-6.4-25.9-10.1c0,6,0,10.7,0,15.3c-1,0.1-2,0.2-3,0.3c-0.8-6.6-1.6-13.2-2.7-22.4c-5.9,6.8-9.9,11.5-16.6,19.3
		c2.3-8.1,4.3-14,5.6-20.1c0.9-4.7,0.8-9.6,1.3-14.4c0.6-5.5,1.3-11,2-16.5c-14.9-10.3-14.2,11-28.2,12.7c1.5-6.9,0.8-14.2,4.1-17.3
		c7.8-7.4,17.4-13.1,26.3-19.4c-21.2,1.3-52.4,23.9-55.2,43.4c-2.9,19.7-2.7,39.5,9,58.3c17.9,28.7,28.8,28.3,58.6,16.2
		c7.7-3.1,16.4-10.8,18.5-18.2c2.1-7.2,1.4-13.9,10.1-16.7c1-0.3,1.1-3.3,1.7-5.1c16,10.3,32.6,6.2,48.7,1.3
		C315,277.1,304,255,309,245.3c0-8.8,0-14,0-20.5c-11.9,1.6-24.2,3.3-36.5,5c-0.8,1.7-1.6,3.5-2.3,5.2c4.8,2.1,9.6,4.3,14.5,6.4
		c-1.5,1.5-3,3.1-4.5,4.6c-6.9-6.3-13.9-12.5-20.8-18.8c-0.6,0.7-1.2,1.4-1.8,2.1c2.7,2.1,5.4,4.2,8.1,6.2c-0.3,0.6-0.6,1.2-1,1.7
		c-12.8-4.2-25.6-8.5-38.5-12.7c0.5-1.9,1-3.8,1.5-5.7c13.6,1.7,27.1,3.8,40.7,5c22,1.9,41.7-4.1,51.7-24.9
		c5.2-10.8,3.9-24.6,6.8-36.7c3-12.3-4.1-17.2-13.1-21.6c-1.2-0.6-2.1-1.8-3-2.5c2-4,3.8-7.7,6.8-13.7c-5.7,1.6-8.5,2.4-11.5,3.2
		c0.4-3.6,0.6-6,0.7-7.1c-12,3.2-22.8,6.1-33.5,9c6.2,7.4,11.7,13.9,19.7,23.5c-11.6,3.7-19.8,6.3-28.3,9c0.2,1.8,0.7,5.4,1.1,9
		c3.2-0.4,6.8-0.9,10.3-1.3c-7.8,4.6-17.2,5.3-23.4,10C245.9,185,242,194.1,236.8,201.6z M228.3,245.9c-1.8,1.2-3.6,2.3-5.4,3.5
		c-4.6-5.9-9.2-11.7-16.4-20.8c6.7,0.7,9.6,0.9,12.4,1.2C222.1,235.2,225.2,240.5,228.3,245.9z"/>
	<path d="M203.7,204.4c-0.2-0.1-0.4-0.3-0.6-0.4c0,0,0.1,0.1,0.3,0.3C203.5,204.3,203.7,204.5,203.7,204.4
		C203.7,204.4,203.7,204.4,203.7,204.4z"/>
	<path d="M174,102c-2.4,6.3-2.4,15.9-14.4,13.4c-11.3-2.3-23.4-1.3-34.1-4.8c-15.5-5.1-24.7,2.2-30.4,13.7
		c-4.5,9.4-5.6,20.6-7.1,31.2c-0.6,4.7,1.7,9.7,2.5,13.7c7.5,2.4,16.3,5.1,25,7.8c-3.2,1-7.9,0.9-9.3,3.1
		C97.6,192.9,89,205.8,82,219.4c-3.2,6.3-5.1,15.1-3.4,21.7c2.3,8.9,8.4,17,13.6,24.9c1.4,2.1,5.6,3.1,8.6,3.2
		c9.8,0.4,19.6,0.1,31.5,0.1c-7.6-9.3-13.6-16.7-19.9-24.4c7-1,12.4-1.7,16.1-2.3c-3.3-5.6-8.4-10.5-7.5-13.5
		c2.5-8.3,8.3-5.8,13.9-1.8c9.7,6.8,16.9,1.9,22.8-6c3.3-4.3,6.2-8.9,8.9-13.6c1.1-1.9,1-4.5,1.4-6.8c-2,0.1-4.1,0.4-6.1,0.2
		c-4.7-0.3-9.4-0.8-14.1-1.3c0.1-2.3,0.1-4.6,0.2-6.9c7.2-1.3,14.4-2.6,21.6-3.8c-5.4-9.7-28-18.6-42.1-16.4c-2.5,0.4-4.9,1-7.3,1.6
		c0-6.8,0-13.5,0-18.2c5.5-2.1,10.6-4,15.3-5.8c4.3,25.2,31.4,14.5,47.2,25c-4.3,4.8-8.4,9.3-12.4,13.7c-0.2,0-0.4,0.1-0.6,0.1
		c0.1,0.1,0.2,0.2,0.2,0.4c0,0,0.5-0.5,0.5-0.5c0,2.6,0,5.2,0,8.8c4.4-3.8,7.5-6.5,10.6-9.2c2.3-4.8,4.5-9.6,6.9-14.6
		c-2.6-4-5.5-8.5-8.4-13c18.7,5.8,21.8,15.1,15.6,34.4c0.6,1,1.1,2,1.8,3c0.1,0.1,1-0.2,1.3-0.6c11.5-12.1-0.1-45.3-19.5-57.9
		c2.5-6.6,3.6-14,7.7-18.9c4.1-4.8,11.8-10.3,17-9.5c9.1,1.4,4.9,8.2,1.5,13.6c-1.4,2.3-1.1,5.7-1.5,8.5c1-0.7,2-1.4,3.1-2.1
		c1.5,1.6,4.4,3.3,4.2,4.7c-1,12.5-2.6,24.9-4.3,40.3c8.1-5.2,13.3-8.6,18.5-12c2.4,6.4,4.7,12.8,7.2,19.4c1.3-0.6,2.8-0.9,3.9-1.8
		c20.4-15.7,25.8-39.2,19.8-68.4c-4.8-23.4-16-39.1-40-40.5c-12.3-0.7-25.5,3.4-37,8.4C175,83.6,176.5,95.4,174,102z"/>
	<path d="M200.1,228.5c0.1,0.1,0.2,0.1,0.2,0.2c0,0,0,0,0.1,0c-0.1-0.2-0.2-0.3-0.3-0.5C200.1,228.3,200.1,228.4,200.1,228.5z"/>
	<path d="M203.4,204.2c-0.1-0.1-0.3-0.3-0.3-0.3c-0.3,0.2-0.5,0.4-0.8,0.6c0.5,0,0.9-0.1,1.4-0.1
		C203.7,204.5,203.5,204.3,203.4,204.2z"/>
</g>
</svg>
