<?xml version="1.0" encoding="utf-8"?>
<!-- Generator: Adobe Illustrator 22.0.1, SVG Export Plug-In . SVG Version: 6.00 Build 0)  -->
<svg version="1.1" id="Calque_3" xmlns="http://www.w3.org/2000/svg" xmlns:xlink="http://www.w3.org/1999/xlink" x="0px" y="0px"
	 viewBox="0 0 841.9 595.3" style="enable-background:new 0 0 841.9 595.3;" xml:space="preserve">
<style type="text/css">
	.st0{clip-path:url(#SVGID_2_);fill:url(#SVGID_3_);}
	.st1{clip-path:url(#SVGID_5_);fill:url(#SVGID_6_);}
</style>
<g>
	<defs>
		<path id="SVGID_1_" d="M316.5,164.3h20.6v124.5h-20.6V164.3z M573.3,249.6c-6,0-10.9,4.9-10.9,10.9s4.9,10.9,10.9,10.9
			s10.9-4.9,10.9-10.9S579.3,249.6,573.3,249.6z M250.8,260.5c0-6-4.9-10.9-10.9-10.9s-10.9,4.9-10.9,10.9s4.9,10.9,10.9,10.9
			S250.8,266.5,250.8,260.5z M321,127c6,0,10.9-4.9,10.9-10.9s-4.9-10.9-10.9-10.9c-6,0-10.9,4.9-10.9,10.9S315,127,321,127z
			 M489.7,127c6,0,10.9-4.9,10.9-10.9s-4.9-10.9-10.9-10.9s-10.9,4.9-10.9,10.9S483.7,127,489.7,127z M321,394
			c-6,0-10.9,4.9-10.9,10.9s4.9,10.9,10.9,10.9c6,0,10.9-4.9,10.9-10.9S327,394,321,394z M489.7,394c-6,0-10.9,4.9-10.9,10.9
			s4.9,10.9,10.9,10.9s10.9-4.9,10.9-10.9S495.7,394,489.7,394z M560.6,249.9c2.5-2.9,5.9-5,9.8-5.7l-67.9-117.7
			c-2.4,3-5.8,5.1-9.7,5.8L560.6,249.9z M560.6,271.1l-27.5,47.6c2.9,1.5,5.6,3.5,8.1,6.1c0.3,0.3,0.6,0.6,0.9,0.9l28.3-48.9
			C566.5,276.1,563,274,560.6,271.1z M252.6,249.9l67.7-117.2c-4.1-0.2-7.7-1.8-10.5-4.4l-67,116C246.7,244.9,250.2,247,252.6,249.9
			z M492.8,388.6c3.9,0.7,7.3,2.9,9.7,5.8l8.4-14.6c-3.8-0.8-7.3-2.3-10.5-4.4L492.8,388.6z M312.8,375.3c-3.2,2.1-6.7,3.6-10.5,4.5
			l7.5,13c2.8-2.6,6.5-4.3,10.5-4.4L312.8,375.3z M336.5,399.2c0.7,1.8,1,3.7,1,5.7c0,2-0.4,3.9-1,5.7h137.6c-0.6-1.8-1-3.7-1-5.7
			c0-2,0.4-3.9,1-5.7H336.5z M474.2,121.8c-0.7-1.8-1-3.7-1-5.7c0-2,0.4-3.9,1-5.7H336.5c0.7,1.8,1,3.7,1,5.7c0,2-0.4,3.9-1,5.7
			H474.2z M242.8,276.8l28.2,48.9c0.3-0.3,0.5-0.6,0.8-0.9c2.5-2.5,5.2-4.6,8.2-6.1l-27.5-47.6C250.2,274,246.7,276.1,242.8,276.8z
			 M470.4,164.3l-35.5,45.4l-35.3-45.4H373l48.8,62.2L373,288.7h26.5l35.3-45.4l35.5,45.4h26.4l-48.6-62.2l48.6-62.2H470.4z"/>
	</defs>
	<clipPath id="SVGID_2_">
		<use xlink:href="#SVGID_1_"  style="overflow:visible;"/>
	</clipPath>
	<linearGradient id="SVGID_3_" gradientUnits="userSpaceOnUse" x1="383.0093" y1="22.5338" x2="429.8399" y2="557.8093">
		<stop  offset="0" style="stop-color:#FCE2A9"/>
		<stop  offset="1" style="stop-color:#CE843B"/>
	</linearGradient>
	<rect x="180.8" y="73.2" class="st0" width="446.2" height="376.2"/>
</g>
<g>
	<defs>
		<path id="SVGID_4_" d="M316.5,164.3h20.6v124.5h-20.6V164.3z M470.4,164.3h26.4l-48.6,62.2l48.6,62.2h-26.4l-35.5-45.4l-35.3,45.4
			H373l48.8-62.2L373,164.3h26.5l35.3,45.4L470.4,164.3z M216.5,323.6h16.1c3.3,0,6.4,0.6,9.4,1.9c2.9,1.3,5.5,3,7.7,5.2
			c2.2,2.2,4,4.8,5.2,7.7c1.3,2.9,1.9,6,1.9,9.4s-0.6,6.4-1.9,9.3c-1.3,2.9-3,5.5-5.2,7.7c-2.2,2.2-4.8,4-7.7,5.2
			c-3,1.3-6.1,1.9-9.4,1.9h-16.1V323.6z M232.6,364c2.2,0,4.3-0.4,6.3-1.3c2-0.8,3.7-2,5.1-3.5c1.5-1.5,2.6-3.2,3.5-5.2
			c0.8-2,1.3-4,1.3-6.2s-0.4-4.3-1.3-6.2c-0.8-2-2-3.7-3.5-5.2c-1.5-1.5-3.2-2.7-5.2-3.5c-2-0.8-4-1.3-6.2-1.3h-8.1V364H232.6z
			 M295,323.6c6.7,0,12.4,2.4,17.1,7.1c4.8,4.7,7.2,10.4,7.2,17.1c0,6.7-2.4,12.4-7.2,17.1c-4.7,4.7-10.4,7.1-17.1,7.1
			c-6.7,0-12.4-2.4-17.1-7.1c-4.7-4.7-7.1-10.4-7.1-17.1c0-6.7,2.4-12.4,7.1-17.1C282.6,326,288.3,323.6,295,323.6z M295,331.7
			c-4.4,0-8.2,1.6-11.4,4.7c-3.1,3.2-4.7,7-4.7,11.4c0,4.4,1.6,8.2,4.7,11.4c3.2,3.1,7,4.7,11.4,4.7c4.4,0,8.2-1.6,11.4-4.7
			c3.2-3.2,4.7-7,4.7-11.4c0-4.4-1.6-8.2-4.7-11.4C303.2,333.3,299.4,331.7,295,331.7z M341.3,343.1v29h-8v-48.4l24.2,24.2
			l24.3-24.2v48.4h-8.2v-29l-16.1,16.2L341.3,343.1z M395.7,323.6h8v48.4h-8V323.6z M417.7,323.6l32.2,29v-29h8.1V372v-0.1v0.1
			l-32.3-29v29h-8V323.6z M471.9,323.6h8v48.4h-8V323.6z M518.1,323.6c6.7,0,12.4,2.4,17.1,7.1c4.8,4.7,7.2,10.4,7.2,17.1
			c0,6.7-2.4,12.4-7.2,17.1c-4.7,4.7-10.4,7.1-17.1,7.1c-6.7,0-12.4-2.4-17.1-7.1c-4.7-4.7-7.1-10.4-7.1-17.1
			c0-6.7,2.4-12.4,7.1-17.1C505.7,326,511.4,323.6,518.1,323.6z M518.1,331.7c-4.4,0-8.2,1.6-11.4,4.7c-3.1,3.2-4.7,7-4.7,11.4
			c0,4.4,1.6,8.2,4.7,11.4c3.2,3.1,7,4.7,11.4,4.7c4.4,0,8.2-1.6,11.4-4.7c3.2-3.2,4.7-7,4.7-11.4c0-4.4-1.6-8.2-4.7-11.4
			C526.3,333.3,522.6,331.7,518.1,331.7z M556.4,323.6l32.2,29v-29h8.1V372v-0.1v0.1l-32.3-29v29h-8V323.6z"/>
	</defs>
	<clipPath id="SVGID_5_">
		<use xlink:href="#SVGID_4_"  style="overflow:visible;"/>
	</clipPath>
	<linearGradient id="SVGID_6_" gradientUnits="userSpaceOnUse" x1="383.7166" y1="-6.1205" x2="419.7675" y2="405.9426">
		<stop  offset="0" style="stop-color:#FCE2A9"/>
		<stop  offset="1" style="stop-color:#CE843B"/>
	</linearGradient>
	<rect x="180.8" y="36.4" class="st1" width="446.2" height="376.2"/>
</g>
</svg>
